<svg xmlns="http://www.w3.org/2000/svg" height="1200" width="1600" version="1.1" xmlns:xlink="http://www.w3.org/1999/xlink" xmlns:svgjs="http://svgjs.com/svgjs"><rect fill="#ffffff" width="1600" height="1200"></rect><g><path d="M615.63 1029.2C618.58 1028.63 621.46 1027.78 624.23 1026.66L927.87 903.33C936.36 899.85 943.41 893.98 947.88 886.68 952.35 879.38 953.98 871.07 952.51 863.11L868.86 430.69C867.45 423.32 863.43 416.64 857.36 411.61 851.29 406.58 843.5 403.45 835.07 402.68L501.41 371.4C497.11 371.04 492.74 371.27 488.45 372.09 477.87 374.15 468.42 379.81 462.2 387.83 455.98 395.85 453.48 405.58 455.27 414.88L568.82 1001.83C569.3 1004.43 570.14 1006.96 571.31 1009.37 574.84 1016.73 581.15 1022.69 589.19 1026.29 597.23 1029.9 606.55 1030.92 615.63 1029.2H615.63Z" fill="#5e3d9e" opacity="1" stroke-width="4" stroke="none"></path></g><g><path d="M612.14 353.08L949.7 382.94C1004.52 387.79 1044.98 436.11 1040.13 490.93L1010.27 828.49C1005.42 883.31 957.11 923.78 902.28 918.93L564.73 889.07C509.9 884.22 469.44 835.9 474.29 781.08L504.15 443.52C509 388.69 557.43 348.24 612.14 353.08Z" fill="#61ccff" opacity="1" stroke-width="4" stroke="none"></path></g><g><path d="M479.85 1010.63C528.53 1005.93 580.62 998.85 679.02 925.36 850.8 797.06 941.43 768.88 961.36 813.94 978.87 853.71 889.23 932.51 853.8 979.94 778.8 1080.36 809.35 1137.04 907.34 1106.15 1003.99 1075.69 1055.5 1009.47 1150.38 1080.33" stroke="#000000" stroke-width="4" stroke-linecap="round" stroke-linejoin="round" opacity="1" fill="none"></path></g><g><path d="M1099.99 505.23L1206.49 449 1084.92 443.77 1186.9 295.69 1041.16 351.03 1014.87 236.17 964.68 319.82" stroke="#ffc930" stroke-width="4" stroke-linecap="round" stroke-linejoin="round" opacity="1" fill="none"></path></g><g><path d="M745.14 741.74L700.99 726.26 673.53 804.55C669.25 816.75 675.66 830.09 687.86 834.37 700.06 838.65 713.4 832.23 717.68 820.04L745.14 741.74Z" fill="#ffa0dc" opacity="1" stroke-width="4" stroke="none"></path><path d="M679.27 820.11C691.47 824.39 704.81 817.97 709.09 805.77L733.03 737.5 745.14 741.74 717.68 820.04C713.4 832.23 700.06 838.65 687.86 834.37 679.58 831.46 674.01 824.45 672.58 816.43 674.51 817.93 676.78 819.19 679.27 820.11Z" fill="#313131" opacity="0.2" stroke-width="4" stroke="none"></path><path d="M725.15 695.98L745.24 703.03 733.11 737.59 713.03 730.55 725.15 695.98Z" fill="#ffa0dc" opacity="1" stroke-width="4" stroke="none"></path><path d="M723.28 701.35L725.16 695.98 745.3 702.79 733.09 737.67 728.41 735.97C731.82 722.6 729.74 709.6 723.28 701.35Z" fill="#313131" opacity="0.2" stroke-width="4" stroke="none"></path><path d="M700.99 726.26C696.44 738.36 702.48 751.88 714.58 756.43 726.69 760.98 740.21 754.94 744.76 742.84 744.88 742.47 745.01 742.11 745.14 741.74L700.99 726.26Z" fill="#5e3d9e" opacity="1" stroke-width="4" stroke="none"></path><path d="M673.88 572.09C675.18 568.66 676.64 565.24 678.25 561.97L699.97 588.96 731.77 652.42 779.27 649.05 826.19 645.6 855.35 655.01C833.72 694.39 788.46 714.56 744.69 704.27 740.67 703.32 736.69 702.13 732.81 700.67 730.05 699.65 727.32 698.54 724.75 697.28 677.95 675.04 655.85 620.72 673.88 572.09Z" fill="#ffa0dc" opacity="1" stroke-width="4" stroke="none"></path><path d="M855.59 508.2C835.39 477.04 764.22 482.01 762.43 483.32L762.27 448.76C812.4 425.5 871.83 447.26 895.12 497.3 916.62 543.58 899.83 598.58 856.22 625 852.06 627.52 847.69 629.77 843.21 631.63L826.13 606.22C831.16 604.71 876.71 540.81 855.59 508.2Z" fill="#ffa0dc" opacity="1" stroke-width="4" stroke="none"></path><path d="M864.43 503.2C884.54 536.37 873.95 579.53 840.84 599.61 836.22 602.44 831.3 604.65 826.21 606.34L818.52 594.75 839.31 572.34 812.44 563.69 834.67 523.33 767.6 553.53 796.91 497.36 762.53 502.68 762.43 483.27C764.22 481.96 766.04 480.71 767.98 479.55 801.16 459.44 844.32 470.03 864.43 503.2Z" fill="#5e3d9e" opacity="1" stroke-width="4" stroke="none"></path><path d="M735.51 578.42L747.51 640.7 781.26 575.35 788.94 620.78 815.37 610.87 812.97 641.32 826.24 645.61C804.84 677.93 761.28 686.83 728.94 665.36 703.84 648.74 692.12 617.9 699.86 588.82L711.98 603.96 735.51 578.42Z" fill="#5e3d9e" opacity="1" stroke-width="4" stroke="none"></path><path d="M729.42 785.56L686.02 770.39" stroke="#313131" stroke-width="4" stroke-linecap="round" stroke-linejoin="round" opacity="1" fill="none"></path><path d="M724.63 799.21L681.23 784.04" stroke="#313131" stroke-width="4" stroke-linecap="round" stroke-linejoin="round" opacity="1" fill="none"></path><path d="M719.84 812.87L676.44 797.7" stroke="#313131" stroke-width="4" stroke-linecap="round" stroke-linejoin="round" opacity="1" fill="none"></path><path d="M744.74 704.39C740.73 703.44 736.75 702.25 732.87 700.79 730.11 699.77 727.38 698.66 724.81 697.4" stroke="#313131" stroke-width="4" stroke-linecap="round" stroke-linejoin="round" opacity="1" fill="none"></path></g><g><path d="M519.21 252.1C545.25 252.1 566.35 231 566.35 204.97 566.35 178.93 545.25 157.83 519.21 157.83 493.18 157.83 472.08 178.93 472.08 204.97 472.08 231 493.18 252.1 519.21 252.1Z" stroke="#ffa0dc" stroke-width="4" stroke-linecap="round" stroke-linejoin="round" opacity="1" fill="none"></path></g><g><path d="M1209.92 964.38C1240.55 964.38 1265.38 939.55 1265.38 908.92 1265.38 878.28 1240.55 853.45 1209.92 853.45 1179.28 853.45 1154.45 878.28 1154.45 908.92 1154.45 939.55 1179.28 964.38 1209.92 964.38Z" fill="#ffa0dc" opacity="1" stroke-width="4" stroke="none"></path></g><g><path d="M401.96 955.73C416.79 955.73 428.82 943.7 428.82 928.87 428.82 914.04 416.79 902.01 401.96 902.01 387.13 902.01 375.1 914.04 375.1 928.87 375.1 943.7 387.13 955.73 401.96 955.73Z" stroke="#ffc930" stroke-width="4" stroke-linecap="round" stroke-linejoin="round" opacity="1" fill="none"></path></g><g><path d="M354.52 561.81C340.87 561.81 329.81 572.88 329.81 586.53 329.81 600.17 340.87 611.24 354.52 611.24 368.17 611.24 379.23 600.17 379.23 586.53 379.23 572.88 368.17 561.81 354.52 561.81Z" fill="#ffa0dc" opacity="1" stroke-width="4" stroke="none"></path></g></svg>